<svg width="20" height="20" viewBox="0 0 20 20" fill="none" xmlns="http://www.w3.org/2000/svg">
<path d="M18.3333 18.3333V12.2292C18.3333 9.22917 17.6875 6.9375 14.1875 6.9375C12.5 6.9375 11.375 7.85417 10.9167 8.72917H10.875V7.20833H7.5625V18.3333H11.0208V12.8125C11.0208 11.3542 11.2917 9.95833 13.0833 9.95833C14.8542 9.95833 14.875 11.6042 14.875 12.8958V18.3125H18.3333V18.3333Z" fill="#231F20"/>
<path d="M1.93762 7.20825H5.39595V18.3333H1.93762V7.20825Z" fill="#231F20"/>
<path d="M3.66675 1.6665C2.56258 1.6665 1.66675 2.56234 1.66675 3.6665C1.66675 4.77067 2.56258 5.68734 3.66675 5.68734C4.77092 5.68734 5.66675 4.77067 5.66675 3.6665C5.66675 2.56234 4.77092 1.6665 3.66675 1.6665Z" fill="#231F20"/>
</svg>
