<svg width="20" height="20" viewBox="0 0 20 20" fill="none" xmlns="http://www.w3.org/2000/svg">
<path d="M18.2878 6.56681C18.2487 5.68124 18.1055 5.07242 17.9004 4.54487C17.6887 3.98489 17.3632 3.48354 16.9366 3.06677C16.5198 2.6435 16.0152 2.31461 15.4617 2.10629C14.9311 1.90114 14.3254 1.75794 13.4398 1.71889C12.5477 1.67654 12.2644 1.66675 10.0016 1.66675C7.7388 1.66675 7.45556 1.67654 6.56669 1.71559C5.68112 1.75463 5.0723 1.89796 4.54488 2.10298C3.98477 2.31461 3.48342 2.6402 3.06664 3.06677C2.64338 3.48354 2.31462 3.9882 2.10617 4.54169C1.90102 5.07242 1.75782 5.67793 1.71877 6.5635C1.67642 7.45568 1.66663 7.73892 1.66663 10.0017C1.66663 12.2646 1.67642 12.5478 1.71546 13.4367C1.75451 14.3222 1.89784 14.931 2.10299 15.4586C2.31462 16.0186 2.64338 16.5199 3.06664 16.9367C3.48342 17.36 3.98808 17.6889 4.54157 17.8972C5.0723 18.1023 5.67781 18.2455 6.56351 18.2846C7.45225 18.3237 7.73562 18.3334 9.99844 18.3334C12.2613 18.3334 12.5445 18.3237 13.4334 18.2846C14.3189 18.2455 14.9277 18.1023 15.4552 17.8972C16.5753 17.4641 17.4608 16.5786 17.8939 15.4586C18.0989 14.9279 18.2422 14.3222 18.2813 13.4367C18.3203 12.5478 18.3301 12.2646 18.3301 10.0017C18.3301 7.73892 18.3268 7.45568 18.2878 6.56681ZM16.7869 13.3715C16.751 14.1855 16.6143 14.625 16.5004 14.9181C16.2203 15.6442 15.644 16.2204 14.918 16.5005C14.6249 16.6144 14.1822 16.7511 13.3714 16.7869C12.4923 16.8261 12.2287 16.8357 10.0049 16.8357C7.78115 16.8357 7.51419 16.8261 6.63829 16.7869C5.82433 16.7511 5.38479 16.6144 5.09176 16.5005C4.73044 16.3669 4.40154 16.1553 4.13459 15.8785C3.85784 15.6083 3.64621 15.2827 3.51267 14.9214C3.39872 14.6284 3.26199 14.1855 3.22626 13.3748C3.18708 12.4958 3.17742 12.232 3.17742 10.0082C3.17742 7.78445 3.18708 7.51749 3.22626 6.64172C3.26199 5.82775 3.39872 5.38821 3.51267 5.09519C3.64621 4.73374 3.85784 4.40497 4.1379 4.13789C4.40803 3.86114 4.73362 3.64951 5.09507 3.5161C5.38809 3.40214 5.83094 3.26542 6.6416 3.22956C7.52068 3.19051 7.78445 3.18072 10.0081 3.18072C12.2352 3.18072 12.4988 3.19051 13.3747 3.22956C14.1887 3.26542 14.6282 3.40214 14.9213 3.5161C15.2826 3.64951 15.6115 3.86114 15.8784 4.13789C16.1552 4.40815 16.3668 4.73374 16.5004 5.09519C16.6143 5.38821 16.751 5.83093 16.7869 6.64172C16.8259 7.5208 16.8357 7.78445 16.8357 10.0082C16.8357 12.232 16.8259 12.4925 16.7869 13.3715Z" fill="#231F20"/>
<path d="M10.0019 5.72021C7.63823 5.72021 5.72046 7.63786 5.72046 10.0017C5.72046 12.3655 7.63823 14.2831 10.0019 14.2831C12.3657 14.2831 14.2834 12.3655 14.2834 10.0017C14.2834 7.63786 12.3657 5.72021 10.0019 5.72021ZM10.0019 12.7789C8.46848 12.7789 7.22464 11.5352 7.22464 10.0017C7.22464 8.46811 8.46848 7.22439 10.0019 7.22439C11.5355 7.22439 12.7792 8.46811 12.7792 10.0017C12.7792 11.5352 11.5355 12.7789 10.0019 12.7789Z" fill="#231F20"/>
<path d="M15.4521 5.55104C15.4521 6.103 15.0045 6.55056 14.4524 6.55056C13.9004 6.55056 13.4529 6.103 13.4529 5.55104C13.4529 4.99894 13.9004 4.55151 14.4524 4.55151C15.0045 4.55151 15.4521 4.99894 15.4521 5.55104Z" fill="#231F20"/>
</svg>
